<svg width="176" height="153" viewBox="0 0 176 153" fill="none" xmlns="http://www.w3.org/2000/svg">
<g filter="url(#filter0_d_27_234)">
<path d="M101.672 11.8284C103.234 10.2663 105.766 10.2663 107.328 11.8284L170.172 74.6716C171.734 76.2337 171.734 78.7663 170.172 80.3284L107.328 143.172C105.766 144.734 103.234 144.734 101.672 143.172L38.8284 80.3284C37.2663 78.7663 37.2663 76.2337 38.8284 74.6716L101.672 11.8284Z" fill="#9FC5E9" fill-opacity="0.5"/>
<g filter="url(#filter1_b_27_234)">
<path d="M68.6716 2.82843C70.2337 1.26633 72.7663 1.26633 74.3284 2.82843L137.172 65.6716C138.734 67.2337 138.734 69.7663 137.172 71.3284L74.3284 134.172C72.7663 135.734 70.2337 135.734 68.6716 134.172L5.82843 71.3284C4.26633 69.7663 4.26633 67.2337 5.82843 65.6716L68.6716 2.82843Z" fill="#DCA85E" fill-opacity="0.8"/>
</g>
</g>
<defs>
<filter id="filter0_d_27_234" x="0.65686" y="1.65686" width="174.686" height="150.686" filterUnits="userSpaceOnUse" color-interpolation-filters="sRGB">
<feFlood flood-opacity="0" result="BackgroundImageFix"/>
<feColorMatrix in="SourceAlpha" type="matrix" values="0 0 0 0 0 0 0 0 0 0 0 0 0 0 0 0 0 0 127 0" result="hardAlpha"/>
<feOffset dy="4"/>
<feGaussianBlur stdDeviation="2"/>
<feComposite in2="hardAlpha" operator="out"/>
<feColorMatrix type="matrix" values="0 0 0 0 0 0 0 0 0 0 0 0 0 0 0 0 0 0 0.25 0"/>
<feBlend mode="normal" in2="BackgroundImageFix" result="effect1_dropShadow_27_234"/>
<feBlend mode="normal" in="SourceGraphic" in2="effect1_dropShadow_27_234" result="shape"/>
</filter>
<filter id="filter1_b_27_234" x="-10.3431" y="-13.3431" width="163.686" height="163.686" filterUnits="userSpaceOnUse" color-interpolation-filters="sRGB">
<feFlood flood-opacity="0" result="BackgroundImageFix"/>
<feGaussianBlur in="BackgroundImageFix" stdDeviation="7.5"/>
<feComposite in2="SourceAlpha" operator="in" result="effect1_backgroundBlur_27_234"/>
<feBlend mode="normal" in="SourceGraphic" in2="effect1_backgroundBlur_27_234" result="shape"/>
</filter>
</defs>
</svg>
