<svg width="204" height="105" viewBox="0 0 204 105" fill="none" xmlns="http://www.w3.org/2000/svg">
<g filter="url(#filter0_d_27_180)">
<path d="M68.1716 8.82843C69.7337 7.26633 72.2663 7.26633 73.8284 8.82843L114.172 49.1716C115.734 50.7337 115.734 53.2663 114.172 54.8284L73.8284 95.1716C72.2663 96.7337 69.7337 96.7337 68.1716 95.1716L27.8284 54.8284C26.2663 53.2663 26.2663 50.7337 27.8284 49.1716L68.1716 8.82843Z" fill="#9FC5E9" fill-opacity="0.5"/>
<path d="M46.1716 2.82843C47.7337 1.26633 50.2663 1.26633 51.8284 2.82843L92.1716 43.1716C93.7337 44.7337 93.7337 47.2663 92.1716 48.8284L51.8284 89.1716C50.2663 90.7337 47.7337 90.7337 46.1716 89.1716L5.82843 48.8284C4.26634 47.2663 4.26633 44.7337 5.82843 43.1716L46.1716 2.82843Z" fill="#DCA85E" fill-opacity="0.8"/>
<path d="M117.864 14.1309V14.5068C117.341 14.5999 116.962 14.7682 116.726 15.0117C116.489 15.248 116.371 15.5882 116.371 16.0322C116.371 16.1969 116.385 16.3831 116.414 16.5908L117.574 24.626C117.66 25.2132 117.857 25.6644 118.165 25.9795C118.48 26.2946 118.938 26.5094 119.54 26.624V27H113.181V26.624C113.711 26.488 114.09 26.2767 114.319 25.9902C114.549 25.7038 114.663 25.292 114.663 24.7549C114.663 24.4899 114.638 24.1676 114.588 23.7881L113.535 16.4404L109.303 27H108.841L104.662 16.4404L103.545 24.0029C103.502 24.3037 103.48 24.5758 103.48 24.8193C103.48 25.9437 104.007 26.5452 105.06 26.624V27H100.397V26.624C101.078 26.5954 101.59 26.3698 101.934 25.9473C102.277 25.5176 102.528 24.7979 102.686 23.7881L103.964 15.3877C103.42 14.8219 102.797 14.5283 102.095 14.5068V14.1309H106.735L110.098 22.6172L113.503 14.1309H117.864ZM123.74 13.2285H124.116V19.8887C125.083 18.8789 126.146 18.374 127.307 18.374C128.431 18.374 129.373 18.7858 130.132 19.6094C130.891 20.4329 131.271 21.4535 131.271 22.6709C131.271 24.1462 130.787 25.292 129.82 26.1084C128.861 26.9248 127.482 27.333 125.685 27.333C124.102 27.333 122.752 27.222 121.635 27V15.0762C121.635 14.403 121.216 13.9912 120.378 13.8408V13.4648L123.74 13.2285ZM124.116 20.4902V25.3457C124.116 25.847 124.216 26.2051 124.417 26.4199C124.625 26.6276 124.965 26.7314 125.438 26.7314C127.493 26.7314 128.521 25.4639 128.521 22.9287C128.521 21.9118 128.291 21.0882 127.833 20.458C127.382 19.8206 126.787 19.502 126.05 19.502C125.713 19.502 125.409 19.5736 125.137 19.7168C124.865 19.8529 124.524 20.1107 124.116 20.4902ZM139.778 25.3027H139.735C138.847 26.6562 137.748 27.333 136.438 27.333C135.578 27.333 134.905 27.111 134.418 26.667C133.931 26.2158 133.688 25.5928 133.688 24.7979V20.5117C133.688 20.0534 133.594 19.724 133.408 19.5234C133.222 19.3158 132.882 19.1689 132.388 19.083V18.707L135.804 18.374H136.169V24.4971C136.169 24.9554 136.305 25.3135 136.577 25.5713C136.849 25.8219 137.229 25.9473 137.716 25.9473C138.138 25.9473 138.496 25.8398 138.79 25.625C139.091 25.403 139.42 25.0091 139.778 24.4434V20.3076C139.778 19.6416 139.345 19.2334 138.479 19.083V18.707L141.895 18.374H142.271V24.9805C142.271 25.5319 142.353 25.9115 142.518 26.1191C142.682 26.3197 143.04 26.488 143.592 26.624V27L139.778 27.333V25.3027ZM148.662 18.374V20.4258H148.705C149.35 19.0579 150.324 18.374 151.627 18.374C153.016 18.374 153.919 19.0579 154.334 20.4258C154.757 19.6953 155.197 19.1725 155.655 18.8574C156.121 18.5352 156.679 18.374 157.331 18.374C158.183 18.374 158.842 18.639 159.308 19.1689C159.773 19.6989 160.006 20.4473 160.006 21.4141V25.002C160.006 25.5104 160.095 25.8757 160.274 26.0977C160.461 26.3197 160.804 26.4951 161.306 26.624V27H156.203V26.624C156.676 26.5166 157.012 26.3555 157.213 26.1406C157.421 25.9258 157.524 25.6178 157.524 25.2168V21.2314C157.524 20.7874 157.399 20.4294 157.148 20.1572C156.898 19.8779 156.576 19.7383 156.182 19.7383C155.337 19.7383 154.721 20.3327 154.334 21.5215V25.1309C154.334 25.582 154.427 25.915 154.613 26.1299C154.799 26.3376 155.14 26.5023 155.634 26.624V27H150.531V26.624C151.004 26.5094 151.34 26.3447 151.541 26.1299C151.749 25.915 151.853 25.6178 151.853 25.2383V21.0811C151.853 20.6943 151.727 20.3757 151.477 20.125C151.226 19.8672 150.925 19.7383 150.574 19.7383C149.837 19.7383 149.199 20.2217 148.662 21.1885V25.002C148.662 25.5391 148.752 25.915 148.931 26.1299C149.117 26.3376 149.464 26.5023 149.973 26.624V27H144.87V26.624C145.35 26.5094 145.687 26.3447 145.88 26.1299C146.073 25.915 146.17 25.5892 146.17 25.1523V20.7051C146.17 20.168 146.07 19.792 145.869 19.5771C145.676 19.3623 145.278 19.1976 144.677 19.083V18.707L148.286 18.374H148.662ZM165.699 13.2285H166.075V19.8887C167.042 18.8789 168.105 18.374 169.266 18.374C170.39 18.374 171.332 18.7858 172.091 19.6094C172.85 20.4329 173.229 21.4535 173.229 22.6709C173.229 24.1462 172.746 25.292 171.779 26.1084C170.82 26.9248 169.441 27.333 167.644 27.333C166.061 27.333 164.711 27.222 163.594 27V15.0762C163.594 14.403 163.175 13.9912 162.337 13.8408V13.4648L165.699 13.2285ZM166.075 20.4902V25.3457C166.075 25.847 166.175 26.2051 166.376 26.4199C166.584 26.6276 166.924 26.7314 167.396 26.7314C169.452 26.7314 170.479 25.4639 170.479 22.9287C170.479 21.9118 170.25 21.0882 169.792 20.458C169.341 19.8206 168.746 19.502 168.009 19.502C167.672 19.502 167.368 19.5736 167.096 19.7168C166.824 19.8529 166.483 20.1107 166.075 20.4902ZM176.893 27.333C176.205 27.333 175.618 27.1217 175.131 26.6992C174.651 26.2695 174.411 25.7539 174.411 25.1523C174.411 24.5508 174.651 24.0531 175.131 23.6592C175.611 23.2581 176.613 22.8571 178.139 22.4561C178.876 22.2627 179.406 22.1051 179.729 21.9834C179.729 21.2171 179.564 20.6621 179.234 20.3184C178.905 19.9746 178.382 19.8027 177.666 19.8027C176.542 19.8027 175.711 20.2646 175.174 21.1885H174.852C175.074 20.2933 175.507 19.6022 176.151 19.1152C176.803 18.6211 177.609 18.374 178.568 18.374C179.678 18.374 180.563 18.6462 181.222 19.1904C181.888 19.7347 182.221 20.4974 182.221 21.4785V25.3887C182.221 26.1263 182.389 26.4951 182.726 26.4951C183.076 26.4951 183.295 26.2373 183.381 25.7217H183.735C183.692 26.2373 183.495 26.6348 183.145 26.9141C182.794 27.1934 182.317 27.333 181.716 27.333C181.207 27.333 180.796 27.2399 180.48 27.0537C180.173 26.8747 179.915 26.5775 179.707 26.1621L179.514 26.3447C178.769 27.0036 177.895 27.333 176.893 27.333ZM179.707 25.5713V22.4238C178.611 22.8893 177.884 23.2904 177.526 23.627C177.175 23.9635 177 24.3968 177 24.9268C177 25.3779 177.104 25.7432 177.312 26.0225C177.526 26.2946 177.806 26.4307 178.149 26.4307C178.615 26.4307 179.134 26.1442 179.707 25.5713ZM110.785 52V50.2812C109.997 51.069 109.31 51.6097 108.723 51.9033C108.143 52.1898 107.448 52.333 106.639 52.333C105.292 52.333 104.218 51.9463 103.416 51.1729C102.621 50.3994 102.224 49.361 102.224 48.0576V41.3115C102.224 40.7314 102.116 40.3268 101.901 40.0977C101.694 39.8613 101.257 39.6644 100.591 39.5068V39.1309H106.692V39.5068C106.041 39.6572 105.604 39.8542 105.382 40.0977C105.167 40.334 105.06 40.7744 105.06 41.4189V48.6162C105.06 49.404 105.274 50.0234 105.704 50.4746C106.134 50.9186 106.725 51.1406 107.477 51.1406C108.536 51.1406 109.639 50.5462 110.785 49.3574V41.3115C110.785 40.7314 110.681 40.3268 110.474 40.0977C110.266 39.8685 109.826 39.6715 109.152 39.5068V39.1309H115.243V39.5068C114.62 39.6357 114.194 39.8255 113.965 40.0762C113.736 40.3197 113.621 40.8174 113.621 41.5693V49.8193C113.621 50.3994 113.725 50.804 113.933 51.0332C114.14 51.2624 114.577 51.4593 115.243 51.624V52H110.785ZM120.217 43.374V46.0166H120.26C121.048 44.2549 121.964 43.374 123.01 43.374C123.583 43.374 124.073 43.6104 124.481 44.083L123.934 46.5859C123.182 45.8698 122.559 45.5117 122.064 45.5117C121.699 45.5117 121.381 45.5977 121.108 45.7695C120.836 45.9414 120.539 46.2493 120.217 46.6934V50.0879C120.217 50.6178 120.31 50.9795 120.496 51.1729C120.682 51.3662 121.058 51.5166 121.624 51.624V52H116.339V51.624C116.883 51.4951 117.248 51.3268 117.435 51.1191C117.628 50.9115 117.725 50.5677 117.725 50.0879V45.7051C117.725 45.1823 117.603 44.792 117.359 44.5342C117.123 44.2764 116.74 44.126 116.21 44.083V43.707L119.841 43.374H120.217ZM128.574 38.2285H128.95V44.8887C129.917 43.8789 130.98 43.374 132.141 43.374C133.265 43.374 134.207 43.7858 134.966 44.6094C135.725 45.4329 136.104 46.4535 136.104 47.6709C136.104 49.1462 135.621 50.292 134.654 51.1084C133.695 51.9248 132.316 52.333 130.519 52.333C128.936 52.333 127.586 52.222 126.469 52V40.0762C126.469 39.403 126.05 38.9912 125.212 38.8408V38.4648L128.574 38.2285ZM128.95 45.4902V50.3457C128.95 50.847 129.05 51.2051 129.251 51.4199C129.459 51.6276 129.799 51.7314 130.271 51.7314C132.327 51.7314 133.354 50.4639 133.354 47.9287C133.354 46.9118 133.125 46.0882 132.667 45.458C132.216 44.8206 131.621 44.502 130.884 44.502C130.547 44.502 130.243 44.5736 129.971 44.7168C129.699 44.8529 129.358 45.1107 128.95 45.4902ZM139.768 52.333C139.08 52.333 138.493 52.1217 138.006 51.6992C137.526 51.2695 137.286 50.7539 137.286 50.1523C137.286 49.5508 137.526 49.0531 138.006 48.6592C138.486 48.2581 139.488 47.8571 141.014 47.4561C141.751 47.2627 142.281 47.1051 142.604 46.9834C142.604 46.2171 142.439 45.6621 142.109 45.3184C141.78 44.9746 141.257 44.8027 140.541 44.8027C139.417 44.8027 138.586 45.2646 138.049 46.1885H137.727C137.949 45.2933 138.382 44.6022 139.026 44.1152C139.678 43.6211 140.484 43.374 141.443 43.374C142.553 43.374 143.438 43.6462 144.097 44.1904C144.763 44.7347 145.096 45.4974 145.096 46.4785V50.3887C145.096 51.1263 145.264 51.4951 145.601 51.4951C145.951 51.4951 146.17 51.2373 146.256 50.7217H146.61C146.567 51.2373 146.37 51.6348 146.02 51.9141C145.669 52.1934 145.192 52.333 144.591 52.333C144.082 52.333 143.671 52.2399 143.355 52.0537C143.048 51.8747 142.79 51.5775 142.582 51.1621L142.389 51.3447C141.644 52.0036 140.77 52.333 139.768 52.333ZM142.582 50.5713V47.4238C141.486 47.8893 140.759 48.2904 140.401 48.627C140.05 48.9635 139.875 49.3968 139.875 49.9268C139.875 50.3779 139.979 50.7432 140.187 51.0225C140.401 51.2946 140.681 51.4307 141.024 51.4307C141.49 51.4307 142.009 51.1442 142.582 50.5713ZM151.391 43.374V45.4043H151.434C152.229 44.0508 153.278 43.374 154.581 43.374C155.397 43.374 156.085 43.6497 156.644 44.2012C157.202 44.7454 157.481 45.4759 157.481 46.3926V50.0234C157.481 50.5462 157.575 50.915 157.761 51.1299C157.947 51.3376 158.287 51.5023 158.781 51.624V52H153.679V51.624C154.166 51.5166 154.506 51.3555 154.699 51.1406C154.893 50.9186 154.989 50.582 154.989 50.1309V46.6934C154.989 46.0703 154.853 45.5869 154.581 45.2432C154.316 44.8923 153.94 44.7168 153.453 44.7168C152.601 44.7168 151.913 45.2002 151.391 46.167V50.0449C151.391 50.5391 151.477 50.89 151.648 51.0977C151.82 51.3053 152.143 51.4808 152.615 51.624V52H147.599V51.624C148.086 51.5023 148.422 51.3376 148.608 51.1299C148.802 50.9222 148.898 50.6107 148.898 50.1953V45.5547C148.898 45.082 148.787 44.7383 148.565 44.5234C148.351 44.3086 147.964 44.1618 147.405 44.083V43.707L151.015 43.374H151.391ZM171.586 52V51.624C172.116 51.5238 172.488 51.402 172.703 51.2588C172.925 51.1084 173.036 50.9007 173.036 50.6357C173.036 50.4209 172.954 50.0915 172.789 49.6475L172.048 47.6709H167.472L166.827 49.3789C166.662 49.8158 166.58 50.1667 166.58 50.4316C166.58 50.9974 167.01 51.3949 167.869 51.624V52H163.712V51.624C164.213 51.5381 164.65 51.2767 165.022 50.8398C165.395 50.403 165.764 49.6904 166.129 48.7021L169.824 38.7979H171.586L175.496 49.0996C175.854 50.0163 176.205 50.6572 176.549 51.0225C176.893 51.3805 177.34 51.5811 177.892 51.624V52H171.586ZM167.869 46.7471H171.693L169.738 41.5264L167.869 46.7471ZM178.934 46.79C178.934 45.8089 179.327 44.9961 180.115 44.3516C180.91 43.6999 181.916 43.374 183.134 43.374C183.356 43.374 183.674 43.3848 184.09 43.4062L184.369 43.417H188.698V44.9209L186.582 44.7598L186.539 44.8027C187.291 45.4329 187.667 46.1383 187.667 46.9189C187.667 47.7855 187.291 48.5088 186.539 49.0889C185.794 49.6689 184.835 49.959 183.66 49.959C182.693 49.959 182.006 50.027 181.598 50.1631C181.197 50.2992 180.996 50.5212 180.996 50.8291C180.996 51.0583 181.143 51.2373 181.437 51.3662C181.73 51.4951 182.393 51.6097 183.424 51.71C184.921 51.8604 185.998 52.068 186.657 52.333C187.316 52.598 187.817 52.9632 188.161 53.4287C188.505 53.9014 188.677 54.3919 188.677 54.9004C188.677 55.9889 188.168 56.8877 187.151 57.5967C186.142 58.3128 184.802 58.6709 183.134 58.6709C181.73 58.6709 180.581 58.431 179.686 57.9512C178.798 57.4714 178.354 56.8519 178.354 56.0928C178.354 55.4769 178.676 54.9398 179.32 54.4814C179.965 54.0231 180.824 53.7402 181.898 53.6328V53.5791C180.896 53.4788 180.162 53.2747 179.696 52.9668C179.231 52.666 178.998 52.2113 178.998 51.6025C178.998 51.1442 179.191 50.779 179.578 50.5068C179.972 50.2347 180.681 49.984 181.705 49.7549V49.7119C180.745 49.4183 180.044 49.0387 179.6 48.5732C179.156 48.1006 178.934 47.5062 178.934 46.79ZM181.415 46.6934C181.415 47.5026 181.587 48.1507 181.931 48.6377C182.274 49.1175 182.733 49.3574 183.306 49.3574C183.9 49.3574 184.358 49.1211 184.681 48.6484C185.01 48.1758 185.175 47.5026 185.175 46.6289C185.175 45.8053 185.014 45.1608 184.691 44.6953C184.369 44.2298 183.936 43.9971 183.392 43.9971C182.074 43.9971 181.415 44.8958 181.415 46.6934ZM180.384 55.1904C180.384 55.8206 180.864 56.3255 181.823 56.7051C182.783 57.0918 183.893 57.2852 185.153 57.2852C185.769 57.2852 186.274 57.1562 186.668 56.8984C187.069 56.6406 187.27 56.3148 187.27 55.9209C187.27 55.2979 186.818 54.8073 185.916 54.4492C185.014 54.0911 183.932 53.9121 182.672 53.9121C181.977 53.9121 181.422 54.0267 181.007 54.2559C180.591 54.4922 180.384 54.8037 180.384 55.1904ZM198.774 49.4434H199.14C198.767 50.3385 198.184 51.0439 197.389 51.5596C196.594 52.0752 195.699 52.333 194.703 52.333C193.407 52.333 192.326 51.9141 191.459 51.0762C190.6 50.2311 190.17 49.1748 190.17 47.9072C190.17 46.6182 190.61 45.5404 191.491 44.6738C192.379 43.8073 193.479 43.374 194.789 43.374C195.971 43.374 196.952 43.7142 197.732 44.3945C198.52 45.0677 198.989 45.9736 199.14 47.1123H192.855C192.848 47.2269 192.845 47.3415 192.845 47.4561C192.845 48.5804 193.128 49.4935 193.693 50.1953C194.259 50.8971 194.961 51.248 195.799 51.248C196.995 51.248 197.987 50.6465 198.774 49.4434ZM192.855 46.6074H196.465C196.415 45.8268 196.218 45.193 195.874 44.7061C195.53 44.2119 195.108 43.9648 194.606 43.9648C194.105 43.9648 193.697 44.2048 193.382 44.6846C193.067 45.1644 192.891 45.8053 192.855 46.6074ZM100.655 64.1309H107.262C108.622 64.1309 109.693 64.446 110.474 65.0762C111.261 65.7064 111.655 66.5264 111.655 67.5361C111.655 68.6247 111.218 69.5163 110.345 70.2109C109.478 70.9056 108.282 71.2529 106.757 71.2529C106.227 71.2529 105.683 71.2171 105.124 71.1455V74.8193C105.124 75.3994 105.239 75.8184 105.468 76.0762C105.704 76.334 106.127 76.5166 106.735 76.624V77H100.655V76.624C101.307 76.4951 101.74 76.3018 101.955 76.0439C102.177 75.779 102.288 75.3206 102.288 74.6689V66.2686C102.288 65.6813 102.184 65.2767 101.977 65.0547C101.769 64.8327 101.328 64.6501 100.655 64.5068V64.1309ZM106.209 64.8613H105.124V70.3828C105.453 70.4831 105.769 70.5332 106.069 70.5332C106.857 70.5332 107.473 70.2826 107.917 69.7812C108.361 69.2728 108.583 68.5638 108.583 67.6543C108.583 66.8236 108.365 66.1504 107.928 65.6348C107.491 65.1191 106.918 64.8613 106.209 64.8613ZM116.307 68.374V71.0166H116.35C117.137 69.2549 118.054 68.374 119.1 68.374C119.673 68.374 120.163 68.6104 120.571 69.083L120.023 71.5859C119.271 70.8698 118.648 70.5117 118.154 70.5117C117.789 70.5117 117.47 70.5977 117.198 70.7695C116.926 70.9414 116.629 71.2493 116.307 71.6934V75.0879C116.307 75.6178 116.4 75.9795 116.586 76.1729C116.772 76.3662 117.148 76.5166 117.714 76.624V77H112.429V76.624C112.973 76.4951 113.338 76.3268 113.524 76.1191C113.718 75.9115 113.814 75.5677 113.814 75.0879V70.7051C113.814 70.1823 113.693 69.792 113.449 69.5342C113.213 69.2764 112.83 69.126 112.3 69.083V68.707L115.931 68.374H116.307ZM131.99 72.8428C131.99 74.1175 131.514 75.1846 130.562 76.0439C129.616 76.9033 128.37 77.333 126.823 77.333C125.276 77.333 124.023 76.9069 123.063 76.0547C122.111 75.1953 121.635 74.1247 121.635 72.8428C121.635 72.0479 121.853 71.2923 122.29 70.5762C122.734 69.86 123.339 69.3158 124.105 68.9434C124.879 68.5638 125.785 68.374 126.823 68.374C128.377 68.374 129.627 68.8037 130.572 69.6631C131.518 70.5225 131.99 71.5824 131.99 72.8428ZM129.24 72.8428C129.24 71.611 129.029 70.6585 128.606 69.9854C128.191 69.305 127.597 68.9648 126.823 68.9648C126.028 68.9648 125.423 69.3122 125.008 70.0068C124.592 70.7015 124.385 71.6969 124.385 72.9932C124.385 74.1318 124.603 75.0413 125.04 75.7217C125.484 76.3949 126.078 76.7314 126.823 76.7314C127.582 76.7314 128.173 76.3913 128.596 75.7109C129.025 75.0234 129.24 74.0674 129.24 72.8428ZM137.275 68.374V69.9854C138.206 68.9111 139.32 68.374 140.616 68.374C141.741 68.374 142.675 68.793 143.42 69.6309C144.165 70.4616 144.537 71.5036 144.537 72.7568C144.537 74.0889 144.125 75.1846 143.302 76.0439C142.485 76.9033 141.443 77.333 140.176 77.333C139.639 77.333 139.17 77.2471 138.769 77.0752C138.375 76.9105 137.877 76.5918 137.275 76.1191V81.3613C137.275 81.9486 137.376 82.3532 137.576 82.5752C137.777 82.8044 138.188 82.9834 138.812 83.1123V83.4668H133.29V83.0908C133.892 83.0192 134.289 82.8509 134.482 82.5859C134.683 82.321 134.783 81.7946 134.783 81.0068V70.8662C134.783 70.2288 134.683 69.8027 134.482 69.5879C134.289 69.373 133.892 69.2048 133.29 69.083V68.707L136.899 68.374H137.275ZM137.275 70.5762V75.5283C137.92 76.1729 138.6 76.4951 139.316 76.4951C140.054 76.4951 140.648 76.1764 141.1 75.5391C141.558 74.9017 141.787 74.0602 141.787 73.0146C141.787 71.9261 141.569 71.0667 141.132 70.4365C140.702 69.7992 140.118 69.4805 139.381 69.4805C138.579 69.4805 137.877 69.8457 137.275 70.5762ZM154.817 74.4434H155.183C154.81 75.3385 154.227 76.0439 153.432 76.5596C152.637 77.0752 151.742 77.333 150.746 77.333C149.45 77.333 148.368 76.9141 147.502 76.0762C146.643 75.2311 146.213 74.1748 146.213 72.9072C146.213 71.6182 146.653 70.5404 147.534 69.6738C148.422 68.8073 149.521 68.374 150.832 68.374C152.014 68.374 152.995 68.7142 153.775 69.3945C154.563 70.0677 155.032 70.9736 155.183 72.1123H148.898C148.891 72.2269 148.888 72.3415 148.888 72.4561C148.888 73.5804 149.171 74.4935 149.736 75.1953C150.302 75.8971 151.004 76.248 151.842 76.248C153.038 76.248 154.03 75.6465 154.817 74.4434ZM148.898 71.6074H152.508C152.458 70.8268 152.261 70.193 151.917 69.7061C151.573 69.2119 151.151 68.9648 150.649 68.9648C150.148 68.9648 149.74 69.2048 149.425 69.6846C149.11 70.1644 148.934 70.8053 148.898 71.6074ZM160.113 68.374V71.0166H160.156C160.944 69.2549 161.861 68.374 162.906 68.374C163.479 68.374 163.97 68.6104 164.378 69.083L163.83 71.5859C163.078 70.8698 162.455 70.5117 161.961 70.5117C161.596 70.5117 161.277 70.5977 161.005 70.7695C160.733 70.9414 160.436 71.2493 160.113 71.6934V75.0879C160.113 75.6178 160.206 75.9795 160.393 76.1729C160.579 76.3662 160.955 76.5166 161.521 76.624V77H156.235V76.624C156.78 76.4951 157.145 76.3268 157.331 76.1191C157.524 75.9115 157.621 75.5677 157.621 75.0879V70.7051C157.621 70.1823 157.499 69.792 157.256 69.5342C157.02 69.2764 156.636 69.126 156.106 69.083V68.707L159.737 68.374H160.113ZM172.574 75.6143L172.832 75.8613C172.252 76.8424 171.364 77.333 170.168 77.333C169.28 77.333 168.589 77.1038 168.095 76.6455C167.601 76.1872 167.354 75.5355 167.354 74.6904V69.3623H165.86V68.9434C166.97 68.263 168.159 67.1136 169.427 65.4951H169.846V68.707H172.574V69.3623H169.846V74.1426C169.846 74.8945 169.964 75.4388 170.2 75.7754C170.444 76.1048 170.83 76.2695 171.36 76.2695C171.797 76.2695 172.202 76.0511 172.574 75.6143ZM177.183 68.374H177.559V75.2168C177.559 76.0475 178.006 76.5166 178.901 76.624V77H173.681V76.624C174.239 76.5166 174.608 76.359 174.787 76.1514C174.973 75.9437 175.066 75.5749 175.066 75.0449V70.6191C175.066 70.1107 174.97 69.7562 174.776 69.5557C174.583 69.3551 174.182 69.1976 173.573 69.083V68.707L177.183 68.374ZM174.873 64.6572C174.873 64.2633 175.013 63.9268 175.292 63.6475C175.578 63.3682 175.922 63.2285 176.323 63.2285C176.717 63.2285 177.054 63.3682 177.333 63.6475C177.612 63.9196 177.752 64.2562 177.752 64.6572C177.752 65.0583 177.612 65.402 177.333 65.6885C177.054 65.9678 176.717 66.1074 176.323 66.1074C175.922 66.1074 175.578 65.9642 175.292 65.6777C175.013 65.3913 174.873 65.0511 174.873 64.6572ZM188.87 74.4434H189.235C188.863 75.3385 188.279 76.0439 187.484 76.5596C186.689 77.0752 185.794 77.333 184.799 77.333C183.503 77.333 182.421 76.9141 181.555 76.0762C180.695 75.2311 180.266 74.1748 180.266 72.9072C180.266 71.6182 180.706 70.5404 181.587 69.6738C182.475 68.8073 183.574 68.374 184.885 68.374C186.066 68.374 187.048 68.7142 187.828 69.3945C188.616 70.0677 189.085 70.9736 189.235 72.1123H182.951C182.944 72.2269 182.94 72.3415 182.94 72.4561C182.94 73.5804 183.223 74.4935 183.789 75.1953C184.355 75.8971 185.057 76.248 185.895 76.248C187.09 76.248 188.082 75.6465 188.87 74.4434ZM182.951 71.6074H186.561C186.51 70.8268 186.313 70.193 185.97 69.7061C185.626 69.2119 185.203 68.9648 184.702 68.9648C184.201 68.9648 183.793 69.2048 183.478 69.6846C183.162 70.1644 182.987 70.8053 182.951 71.6074ZM190.643 77.333V74.1211H191.019C191.849 75.8613 192.852 76.7314 194.026 76.7314C194.427 76.7314 194.771 76.6133 195.058 76.377C195.351 76.1406 195.498 75.8577 195.498 75.5283C195.498 75.1702 195.366 74.8623 195.101 74.6045C194.836 74.3395 194.263 74.0352 193.382 73.6914C192.257 73.2546 191.516 72.832 191.158 72.4238C190.8 72.0085 190.621 71.5036 190.621 70.9092C190.621 70.193 190.89 69.5915 191.427 69.1045C191.971 68.6175 192.669 68.374 193.521 68.374C193.837 68.374 194.384 68.4349 195.165 68.5566C195.473 68.5996 195.659 68.6211 195.724 68.6211C195.853 68.6211 196.021 68.5387 196.229 68.374H196.604V70.9736H196.229C195.978 70.3434 195.627 69.8529 195.176 69.502C194.725 69.1439 194.223 68.9648 193.672 68.9648C193.278 68.9648 192.949 69.0544 192.684 69.2334C192.419 69.4053 192.286 69.6237 192.286 69.8887C192.286 70.1536 192.397 70.3864 192.619 70.5869C192.841 70.7803 193.339 71.0238 194.112 71.3174C195.308 71.7757 196.107 72.2412 196.508 72.7139C196.909 73.1865 197.109 73.7702 197.109 74.4648C197.109 75.2669 196.801 75.9473 196.186 76.5059C195.577 77.0573 194.886 77.333 194.112 77.333C193.654 77.333 193.199 77.2865 192.748 77.1934C192.29 77.0931 191.967 77.043 191.781 77.043C191.452 77.043 191.198 77.1396 191.019 77.333H190.643Z" fill="#3D85C5"/>
</g>
<defs>
<filter id="filter0_d_27_180" x="0.65686" y="1.65686" width="202.483" height="102.686" filterUnits="userSpaceOnUse" color-interpolation-filters="sRGB">
<feFlood flood-opacity="0" result="BackgroundImageFix"/>
<feColorMatrix in="SourceAlpha" type="matrix" values="0 0 0 0 0 0 0 0 0 0 0 0 0 0 0 0 0 0 127 0" result="hardAlpha"/>
<feOffset dy="4"/>
<feGaussianBlur stdDeviation="2"/>
<feComposite in2="hardAlpha" operator="out"/>
<feColorMatrix type="matrix" values="0 0 0 0 0 0 0 0 0 0 0 0 0 0 0 0 0 0 0.25 0"/>
<feBlend mode="normal" in2="BackgroundImageFix" result="effect1_dropShadow_27_180"/>
<feBlend mode="normal" in="SourceGraphic" in2="effect1_dropShadow_27_180" result="shape"/>
</filter>
</defs>
</svg>
